<?xml version="1.0" encoding="UTF-8" standalone="no"?>
<!-- Generator: IcoMoon.io -->

<svg
   xmlns:dc="http://purl.org/dc/elements/1.1/"
   xmlns:cc="http://creativecommons.org/ns#"
   xmlns:rdf="http://www.w3.org/1999/02/22-rdf-syntax-ns#"
   xmlns:svg="http://www.w3.org/2000/svg"
   xmlns="http://www.w3.org/2000/svg"
   xmlns:sodipodi="http://sodipodi.sourceforge.net/DTD/sodipodi-0.dtd"
   xmlns:inkscape="http://www.inkscape.org/namespaces/inkscape"
   id="svg2"
   version="1.1"
   data-tags="remove-circle, cancel, close, remove, delete"
   height="1200"
   width="1200"
   data-du=""
   viewBox="0 0 1200 1200"
   inkscape:version="0.48.3.1 r9886"
   sodipodi:docname="googleplus-icon.svg">
  <defs
     id="defs32" />
  <sodipodi:namedview
     pagecolor="#ffffff"
     bordercolor="#666666"
     borderopacity="1"
     objecttolerance="10"
     gridtolerance="10"
     guidetolerance="10"
     inkscape:pageopacity="0"
     inkscape:pageshadow="2"
     inkscape:window-width="1920"
     inkscape:window-height="1110"
     id="namedview30"
     showgrid="false"
     inkscape:zoom="0.26339286"
     inkscape:cx="892.88864"
     inkscape:cy="434.03914"
     inkscape:window-x="0"
     inkscape:window-y="27"
     inkscape:window-maximized="1"
     inkscape:current-layer="svg2" />
  <metadata
     id="metadata62">
    <rdf:RDF>
      <cc:Work
         rdf:about="">
        <dc:format>image/svg+xml</dc:format>
        <dc:type
           rdf:resource="http://purl.org/dc/dcmitype/StillImage" />
        <dc:title></dc:title>
      </cc:Work>
    </rdf:RDF>
  </metadata>
  <path
     id="path10481"
     d="m 0,1168 0,5.6269 c 1.9913438,-1.9269 5.3186064,-2.8403 8.2890624,-2.8652 l 9.8593756,0 -2.625,2.1172 -2.832032,0 c 0.684463,0.6298 1.319225,1.3064 1.824219,2.1484 0.653056,1.1105 0.995869,2.4156 1.007813,3.7871 -0.006,1.3201 -0.323788,2.7934 -1.144532,4.0254 -0.670112,0.9853 -1.632437,1.8393 -2.644531,2.627 -0.665544,0.6685 -1.246213,1.2257 -1.294925,2.2852 0.0079,0.7899 0.525063,1.5023 1.228519,2.0136 1.177425,0.9131 2.185169,1.6762 3.291018,2.627 1.060744,0.9154 2.046332,2.0485 2.677732,3.4297 0.539462,1.2523 0.545168,2.7746 0.171875,4.1777 L 32,1200 l 0,-20.8457 -5.902344,0 0,5.9707 -2.556643,0 0,-5.9707 -5.904294,0 0,-2.457 5.904294,0 0,-5.9356 2.556643,0 0,5.9356 5.902344,0 0,-8.6973 -32,0 z m 5.8437501,4.3984 c -0.576069,0.013 -1.1615002,0.1394 -1.7168,0.3926 -1.1159504,0.5463 -1.935494,1.4277 -2.2343752,2.7656 -0.2305998,1.384 -0.1795188,2.8487 0.1718749,4.3321 0.4165065,1.6919 1.2454817,3.2973 2.7441441,4.4707 1.130281,0.7983 2.8423061,0.9174 4.2832061,0.5273 1.126469,-0.3352 1.933413,-1.3997 2.371087,-2.5586 0.39745,-1.2566 0.259988,-2.6845 -0.08594,-4.1269 -0.449537,-1.8421 -1.343762,-3.6206 -2.9179625,-4.9649 -0.7220686,-0.5607 -1.6551251,-0.859 -2.6152374,-0.8379 z M 0,1185.2285 l 0,8.1192 c 1.6051375,-1.1859 3.8335749,-1.3306 5.8515624,-1.3985 0.625444,0 1.1642437,-0.01 1.6191376,-0.033 -0.3184,-0.4321 -0.6304563,-0.8876 -0.9375,-1.3652 -0.6908128,-1.1065 -0.5204499,-2.4566 -0.017575,-3.6524 C 4.1549373,1187.2012 2.0525562,1186.766 0,1185.2285 z m 7.9082,7.9785 c -1.1206688,0 -2.2108627,0.2104 -3.3203125,0.3633 -1.7217374,0.3339 -3.3534498,1.0206 -4.5878875,2.4024 l 0,4.0273 15.080075,0 c 0.05171,-0.157 0.06639,-0.335 0.06641,-0.5117 -0.01166,-1.1723 -0.79025,-2.2399 -1.740237,-3.0528 -1.334219,-1.1335 -2.880556,-2.0529 -4.3652375,-3.1562 -0.3823877,-0.053 -0.7592501,-0.074 -1.1328125,-0.072 z"
     inkscape:connector-curvature="0"
     inkscape:export-filename="/home/thanasisem/Επιφάνεια εργασίας/google-plus-white.png"
     inkscape:export-xdpi="90"
     inkscape:export-ydpi="90" />
</svg>
