<?xml version="1.0" encoding="utf-8"?>
<!-- Generated by IcoMoon.io -->
<!DOCTYPE svg PUBLIC "-//W3C//DTD SVG 1.1//EN" "http://www.w3.org/Graphics/SVG/1.1/DTD/svg11.dtd">
<svg version="1.1" xmlns="http://www.w3.org/2000/svg" xmlns:xlink="http://www.w3.org/1999/xlink" width="320" height="320" viewBox="0 0 320 320">
<g>
</g>
	<path d="M113.663 225.641l12.906-18.068-14.142-14.142-18.068 12.905c-3.351-1.873-6.939-3.367-10.708-4.435l-3.651-21.901h-20l-3.65 21.902c-3.769 1.068-7.358 2.562-10.708 4.435l-18.068-12.906-14.143 14.142 12.906 18.068c-1.873 3.35-3.367 6.939-4.435 10.708l-21.902 3.651v20l21.902 3.651c1.068 3.769 2.562 7.358 4.435 10.708l-12.906 18.067 14.142 14.143 18.068-12.905c3.351 1.873 6.939 3.367 10.708 4.435l3.651 21.901h20l3.65-21.902c3.769-1.068 7.358-2.562 10.708-4.435l18.068 12.905 14.142-14.142-12.906-18.067c1.873-3.35 3.367-6.939 4.435-10.708l21.903-3.65v-20l-21.902-3.651c-1.068-3.769-2.562-7.357-4.435-10.708zM70 270c-11.046 0-20-8.954-20-20s8.954-20 20-20 20 8.954 20 20-8.954 20-20 20zM320 120v-20l-21.057-3.828c-0.388-2.514-0.885-4.993-1.476-7.434l17.987-11.594-7.654-18.478-20.92 4.521c-1.317-2.159-2.727-4.256-4.216-6.291l12.189-17.607-14.142-14.142-17.607 12.189c-2.035-1.489-4.131-2.899-6.291-4.217l4.521-20.92-18.478-7.654-11.594 17.987c-2.441-0.591-4.92-1.088-7.434-1.476l-3.829-21.057h-20l-3.829 21.057c-2.514 0.388-4.993 0.885-7.434 1.476l-11.593-17.987-18.477 7.654 4.521 20.92c-2.159 1.317-4.256 2.727-6.291 4.217l-17.607-12.189-14.142 14.142 12.189 17.607c-1.489 2.034-2.899 4.131-4.217 6.291l-20.92-4.521-7.654 18.477 17.987 11.594c-0.591 2.441-1.088 4.919-1.476 7.434l-21.058 3.829v20l21.057 3.828c0.388 2.514 0.885 4.993 1.476 7.434l-17.987 11.594 7.654 18.477 20.92-4.521c1.317 2.159 2.727 4.256 4.217 6.291l-12.189 17.607 14.142 14.143 17.607-12.189c2.034 1.489 4.131 2.899 6.291 4.216l-4.521 20.92 18.477 7.654 11.594-17.987c2.441 0.591 4.919 1.088 7.434 1.476l3.829 21.058h20l3.829-21.057c2.514-0.388 4.993-0.885 7.434-1.476l11.594 17.987 18.478-7.654-4.521-20.92c2.159-1.317 4.256-2.727 6.291-4.216l17.607 12.189 14.142-14.142-12.189-17.607c1.489-2.035 2.899-4.131 4.216-6.291l20.92 4.521 7.654-18.478-17.987-11.594c0.591-2.441 1.088-4.919 1.476-7.434l21.057-3.828zM210 153.5c-24.024 0-43.5-19.476-43.5-43.5s19.475-43.5 43.5-43.5 43.5 19.476 43.5 43.5c0 24.024-19.475 43.5-43.5 43.5z" fill="#000000"></path>
</svg>
